<svg xmlns="http://www.w3.org/2000/svg" xmlns:xlink="http://www.w3.org/1999/xlink" viewBox="0 0 399.88 142.73"><defs><style>.cls-1{fill:none;}.cls-2{font-size:37.1px;fill:#fff;font-family:Kollektif-Bold, Kollektif;font-weight:700;}.cls-3{font-size:13.97px;font-family:Kollektif;}.cls-3,.cls-5{fill:#a7e66e;}.cls-4{clip-path:url(#clip-path);}.cls-6{clip-path:url(#clip-path-2);}.cls-7{fill:#374251;}</style><clipPath id="clip-path" transform="translate(-14.58)"><rect class="cls-1" x="14.58" width="85.79" height="138.59"/></clipPath><clipPath id="clip-path-2" transform="translate(-14.58)"><rect class="cls-1" y="6.94" width="114.83" height="125.25"/></clipPath></defs><g id="Capa_2" data-name="Capa 2"><g id="Capa_1-2" data-name="Capa 1"><text class="cls-2" transform="translate(117.79 80.74)">F</text><text class="cls-2" transform="translate(137.9 80.74)">R</text><text class="cls-2" transform="translate(164.8 80.74)">E</text><text class="cls-2" transform="translate(186.24 80.74)">S</text><text class="cls-2" transform="translate(210.52 80.74)">H</text><text class="cls-2" transform="translate(238.71 80.74)">M</text><text class="cls-2" transform="translate(271.94 80.74)">A</text><text class="cls-2" transform="translate(303.05 80.74)">R</text><text class="cls-2" transform="translate(329.96 80.74)">K</text><text class="cls-2" transform="translate(357.79 80.74)">E</text><text class="cls-2" transform="translate(379.22 80.74)">T</text><text class="cls-3" transform="translate(117.79 139.38)">S</text><text class="cls-3" transform="translate(128.72 139.38)">U</text><text class="cls-3" transform="translate(140.4 139.38)">P</text><text class="cls-3" transform="translate(151.36 139.38)">E</text><text class="cls-3" transform="translate(161.86 139.38)">R</text><text class="cls-3" transform="translate(173.84 139.38)">M</text><text class="cls-3" transform="translate(188.18 139.38)">E</text><text class="cls-3" transform="translate(198.68 139.38)">R</text><text class="cls-3" transform="translate(210.66 139.38)">C</text><text class="cls-3" transform="translate(223.07 139.38)">A</text><text class="cls-3" transform="translate(236.11 139.38)">D</text><text class="cls-3" transform="translate(248.4 139.38)">O</text><g class="cls-4"><rect class="cls-5" width="85.79" height="138.59"/></g><g class="cls-6"><path class="cls-7" d="M66.32,50.48A25.45,25.45,0,0,0,65,55.42a.49.49,0,0,0,.69.54,18.29,18.29,0,0,0,1.84-1.15v0a11.83,11.83,0,0,0,4.68-9.1c.15-.87.27-3.42-.43-3.78s-1.56.56-2,1.38a.84.84,0,0,0-.19.22,54.68,54.68,0,0,0-3.25,7" transform="translate(-14.58)"/><path class="cls-7" d="M51.44,44.21c3,1.1,5.66,3.33,8,5.36,1.78,1.53,3.41,3.36,3.43,5.83,0,.53-1.11.28-1.27.22A18.33,18.33,0,0,1,52,47.31a5.55,5.55,0,0,1-.7-1.4c-.16-.36-.32-.74-.47-1.12a.49.49,0,0,1,.59-.58" transform="translate(-14.58)"/><path class="cls-7" d="M65.21,65a.46.46,0,0,0,.44.37c4.24-.24,7.06-3.27,9.18-6.65a5.37,5.37,0,0,0,1-2.39.39.39,0,0,0-.39-.24c-2.61.09-4.66,1.51-6.41,3.37-1.1,1.16-2.21,2.38-3.2,3.64a2.06,2.06,0,0,0-.62,1.9" transform="translate(-14.58)"/><path class="cls-7" d="M52.17,54.65c.49,5,8.19,12.87,10.35,11.44.55-.69-.07-2.43-.21-2.65a23.09,23.09,0,0,0-4.93-6.18l-.15-.12a23.35,23.35,0,0,0-4.36-3,.48.48,0,0,0-.7.53" transform="translate(-14.58)"/><path class="cls-7" d="M53,65.62c1.62,3.84,4.24,9,8.54,10.37a.48.48,0,0,0,.59-.58,7.33,7.33,0,0,0-.39-1.2.4.4,0,0,0,0-.15,16.37,16.37,0,0,0-8-9.08.48.48,0,0,0-.66.64" transform="translate(-14.58)"/><path class="cls-7" d="M68.55,70.82c1.82-1.39,5.7-4.45,6.58-2.75a.48.48,0,0,1,0,.17c-.84,4.29-6.1,7.4-10.07,8.16a.49.49,0,0,1-.59-.59c.43-2.21,2.37-3.69,4.08-5" transform="translate(-14.58)"/><path class="cls-7" d="M51.56,72.9c.15.53.29,1.33.74,2.62C53.46,79.2,58.45,85.15,60,84c.35.17-1-8.7-7.75-11.47-.33-.15-.81,0-.72.4" transform="translate(-14.58)"/><path class="cls-7" d="M63.33,84.09c.33-1.13,4.56-4.22,5.65-4.8a8.85,8.85,0,0,1,5.78-1.07A.47.47,0,0,1,75,79a28.14,28.14,0,0,1-5.21,4.34c-.74.48-6.56,3.05-6.42.74" transform="translate(-14.58)"/><path class="cls-7" d="M50.76,80.69c-1.19,4.4,3.35,9.3,6.33,11.92a.47.47,0,0,0,.72-.19,16.83,16.83,0,0,0,0-1.74,11.16,11.16,0,0,0-1-3.8,17.37,17.37,0,0,0-5.29-6.4.47.47,0,0,0-.72.21" transform="translate(-14.58)"/><path class="cls-7" d="M66.86,93.13c1.84-1.17,3.82-2,5-3.85a.47.47,0,0,0-.52-.69c-4.53.88-9,2.57-9.71,3.13-.22.16-2.37,1.4-2.18,2.56.25,1.6,6.51-.61,7.38-1.15" transform="translate(-14.58)"/><path class="cls-7" d="M54.19,99.4a.47.47,0,0,0,.81-.32,13.06,13.06,0,0,0-5.57-11,.5.5,0,0,0-.79.2c-1.4,3.52,4.4,9.84,5.55,11.12" transform="translate(-14.58)"/><path class="cls-7" d="M62.14,101.56c1.5-.38,4-1.77,4.55-3.29a.48.48,0,0,0-.34-.58c-4.79-1.52-10,2.88-10.26,3.31a.88.88,0,0,0-.16.39c.5.56,1.45,1.39,6.21.17" transform="translate(-14.58)"/><path class="cls-7" d="M46.93,93.91c3.21,2.54,4.47,6.88,4.6,11a.48.48,0,0,1-.81.33c-3.56-3.49-4.22-6.88-4.52-11a.49.49,0,0,1,.73-.4" transform="translate(-14.58)"/><path class="cls-7" d="M52.3,108.15a8.44,8.44,0,0,1,6-3.53c1.26-.08,3-.18,3.92.86a.5.5,0,0,1-.1.74c-2.47,1.89-8,3.76-9.79,2.49a.4.4,0,0,1-.07-.56" transform="translate(-14.58)"/><path class="cls-7" d="M42.36,99a10.89,10.89,0,0,0,.67,3.56c.69,2.63,3.93,7.18,5.53,6.51.95-.4-2-8.16-5.51-10.57a.46.46,0,0,0-.69.5" transform="translate(-14.58)"/><path class="cls-7" d="M46.61,114.57a.56.56,0,0,0,.37.5,10.25,10.25,0,0,0,6.89-.16c1.16-.45,4.47-2.56,4.52-3.28a.46.46,0,0,0-.22-.41c-2.45-1.47-9.51,1.26-11.4,2.93a.4.4,0,0,0-.16.42" transform="translate(-14.58)"/><path class="cls-7" d="M44.63,114.4c.16,0,.44-8.89-4.47-10-3.1-.73.41,8.93,4.47,10" transform="translate(-14.58)"/><path class="cls-7" d="M65.43,35.28c-.18.91-.55,3.75-.62,4.27-.19,1.19-.71,3.11.2,4.08a.48.48,0,0,0,.75-.09,15.18,15.18,0,0,0,2.68-6.24c.31-1.68.59-3.54-.48-5a.72.72,0,0,0-.18-.17s0-.06-.08-.07c-1.71-.47-2.13,2.55-2.27,3.23" transform="translate(-14.58)"/><path class="cls-7" d="M52.91,33.68A25.3,25.3,0,0,0,55,38l.2.24a19.25,19.25,0,0,0,4.36,4.56l.44.39a.64.64,0,0,0,.23.1l.45.3a.48.48,0,0,0,.72-.4v-.06a.47.47,0,0,0,0-.36v0c-.26-2.3-2.22-5.6-3.67-7.31a42.42,42.42,0,0,0-4.41-4.51c-.37-.27-1.33-.38-.39,2.76" transform="translate(-14.58)"/><path class="cls-7" d="M58.12,23.72v0a.5.5,0,0,1,.8-.18,14.12,14.12,0,0,1,1.63,1.84,11.53,11.53,0,0,1,2.74,6.8,12.2,12.2,0,0,1-.18,4.66c-.32,1.14-1.26-.2-1.34-.36-1.7-3.38-3.91-7.26-3.84-11.18A7,7,0,0,1,58,23.93a.62.62,0,0,1,.13-.21" transform="translate(-14.58)"/><path class="cls-7" d="M63.66,55.86c-.08-5.53-.22-11.09-1.84-16.42-.18-.58.74-.83.91-.24,1.59,5.21,1.79,10.64,1.87,16A144.65,144.65,0,0,1,64,73.87a79.83,79.83,0,0,1-10.83,31.8A58.37,58.37,0,0,1,45.76,115c-.37.37-1.07-.15-.74-.58,1.06-1.42,2.17-2.81,3.33-4.15.47-.54,3.74-4.64,4.67-6.2l.11-.13a78.46,78.46,0,0,0,10-30.62,146.7,146.7,0,0,0,.53-17.41" transform="translate(-14.58)"/></g></g></g></svg>